<svg width="52" height="48" viewBox="0 0 52 48" fill="none" xmlns="http://www.w3.org/2000/svg">
<path d="M6.41797 33.6004V14.4004C6.41797 13.4038 6.41797 12.6288 6.45903 12C6.51027 11.2154 6.62545 10.6586 6.88436 10.1836C7.29461 9.43095 7.94875 8.81947 8.75391 8.43597C9.66925 8 10.8684 8 13.2649 8H38.0835C40.48 8 41.6766 8 42.5919 8.43597C43.3971 8.81947 44.0534 9.43095 44.4637 10.1836C44.7226 10.6586 44.8376 11.2154 44.8887 12C44.9296 12.6274 44.9296 13.4004 44.9296 14.3938L44.9296 33.6061C44.9296 35.842 44.9296 36.96 44.4637 37.8148C44.0534 38.5674 43.3971 39.181 42.5919 39.5645C41.6775 40 40.4815 40 38.0897 40L13.2579 40C10.8661 40 9.66836 40 8.75391 39.5645C7.94875 39.181 7.29461 38.5674 6.88436 37.8148C6.41797 36.9591 6.41797 35.8406 6.41797 33.6004Z" fill="url(#paint0_linear_3006_22)"/>
<path d="M6.41797 12H6.45903M6.45903 12H44.8887M6.45903 12C6.41797 12.6288 6.41797 13.4038 6.41797 14.4004V33.6004C6.41797 35.8406 6.41797 36.9591 6.88436 37.8148C7.29461 38.5674 7.94875 39.181 8.75391 39.5645C9.66836 40 10.8661 40 13.2579 40L38.0897 40C40.4815 40 41.6775 40 42.5919 39.5645C43.3971 39.181 44.0534 38.5674 44.4637 37.8148C44.9296 36.96 44.9296 35.842 44.9296 33.6061L44.9296 14.3938C44.9296 13.4004 44.9296 12.6274 44.8887 12M6.45903 12C6.51027 11.2154 6.62545 10.6586 6.88436 10.1836C7.29461 9.43095 7.94875 8.81947 8.75391 8.43597C9.66925 8 10.8684 8 13.2649 8H38.0835C40.48 8 41.6766 8 42.5919 8.43597C43.3971 8.81947 44.0534 9.43095 44.4637 10.1836C44.7226 10.6586 44.8376 11.2154 44.8887 12M44.8887 12H44.9296M29.9529 22L34.2319 26L29.9529 30M21.3947 30L17.1156 26L21.3947 22" stroke="white" stroke-width="2" stroke-linecap="round" stroke-linejoin="round"/>
<defs>
<linearGradient id="paint0_linear_3006_22" x1="25.6738" y1="8" x2="25.6738" y2="40" gradientUnits="userSpaceOnUse">
<stop stop-color="#6100FF" stop-opacity="0"/>
<stop offset="1" stop-color="#00FFD1"/>
</linearGradient>
</defs>
</svg>
