<svg width="49" height="48" viewBox="0 0 49 48" fill="none" xmlns="http://www.w3.org/2000/svg">
<path d="M6.5 29.6004V18.4004C6.5 16.1602 6.5 15.0392 6.93597 14.1836C7.31947 13.4309 7.93095 12.8195 8.68359 12.436C9.53924 12 10.6602 12 12.9004 12H36.1004C38.3406 12 39.4591 12 40.3148 12.436C41.0674 12.8195 41.681 13.4309 42.0645 14.1836C42.5 15.0384 42.5 16.158 42.5 18.3938V29.6062C42.5 31.842 42.5 32.96 42.0645 33.8148C41.681 34.5674 41.0674 35.181 40.3148 35.5645C39.46 36 38.342 36 36.1062 36H24.5H12.8938C12.7585 36 12.6273 36 12.5 35.9999C10.5235 35.9984 9.48668 35.9736 8.68359 35.5645C7.93095 35.181 7.31947 34.5674 6.93597 33.8148C6.5 32.9591 6.5 31.8406 6.5 29.6004Z" fill="url(#paint0_linear_3006_20)"/>
<path d="M12.5 35.9999C12.6273 36 12.7585 36 12.8938 36H24.5M12.5 35.9999C10.5235 35.9984 9.48668 35.9736 8.68359 35.5645C7.93095 35.181 7.31947 34.5674 6.93597 33.8148C6.5 32.9591 6.5 31.8406 6.5 29.6004V18.4004C6.5 16.1602 6.5 15.0392 6.93597 14.1836C7.31947 13.4309 7.93095 12.8195 8.68359 12.436C9.53924 12 10.6602 12 12.9004 12H36.1004C38.3406 12 39.4591 12 40.3148 12.436C41.0674 12.8195 41.681 13.4309 42.0645 14.1836C42.5 15.0384 42.5 16.158 42.5 18.3938V29.6062C42.5 31.842 42.5 32.96 42.0645 33.8148C41.681 34.5674 41.0674 35.181 40.3148 35.5645C39.46 36 38.342 36 36.1062 36H24.5M12.5 35.9999C12.5001 33.7908 15.1863 32 18.5 32C21.8137 32 24.5 33.7909 24.5 36M12.5 35.9999C12.5 35.9999 12.5 35.9999 12.5 35.9999ZM36.5 28H28.5M36.5 22H30.5M18.5 26C16.2909 26 14.5 24.2091 14.5 22C14.5 19.7909 16.2909 18 18.5 18C20.7091 18 22.5 19.7909 22.5 22C22.5 24.2091 20.7091 26 18.5 26Z" stroke="white" stroke-width="2" stroke-linecap="round" stroke-linejoin="round"/>
<defs>
<linearGradient id="paint0_linear_3006_20" x1="24.5" y1="12" x2="24.5" y2="36" gradientUnits="userSpaceOnUse">
<stop stop-color="#6100FF" stop-opacity="0"/>
<stop offset="1" stop-color="#00FFD1"/>
</linearGradient>
</defs>
</svg>
